<svg width="28" height="26" viewBox="0 0 28 26" xmlns="http://www.w3.org/2000/svg"><g fill="#FEFEFE" fill-rule="evenodd"><path d="M26.88.75H.813c-.43 0-.766.34-.766.772v16.975c0 .432.337.772.766.772h3.834v5.4a.8.8 0 0 0 .52.74c.308.093.676 0 .86-.277l4.385-5.864h16.5c.428 0 .765-.34.765-.773V1.522c-.03-.432-.368-.772-.797-.772zm-.767 16.975h-16.1a.8.8 0 0 0-.613.31l-3.22 4.32v-3.858a.762.762 0 0 0-.767-.772H1.58V2.293h24.533v15.432z"/><path d="M5.413 6.923h9.2c.43 0 .767-.34.767-.772a.762.762 0 0 0-.767-.77h-9.2c-.43 0-.766.34-.766.77 0 .433.337.773.766.773zM22.28 9.238h-7.667c-.43 0-.766.34-.766.77 0 .433.337.773.766.773h7.667c.43 0 .767-.34.767-.77a.762.762 0 0 0-.767-.772zM5.413 10.78h6.134c.43 0 .766-.34.766-.77a.762.762 0 0 0-.766-.772H5.413c-.43 0-.766.34-.766.77 0 .433.337.773.766.773zM16.147 13.096h-4.6c-.43 0-.767.34-.767.77 0 .433.337.773.767.773h4.6c.43 0 .766-.34.766-.773a.762.762 0 0 0-.766-.77zM5.413 14.64H8.48c.43 0 .767-.34.767-.773a.762.762 0 0 0-.767-.77H5.413c-.43 0-.766.338-.766.77s.337.772.766.772zM17.68 6.923h4.6c.43 0 .767-.34.767-.772a.762.762 0 0 0-.767-.77h-4.6c-.43 0-.767.34-.767.77 0 .433.338.773.767.773z"/></g></svg>