<?xml version="1.0" encoding="UTF-8" standalone="no"?>
<svg width="40px" height="47px" viewBox="0 0 40 47" version="1.1" xmlns="http://www.w3.org/2000/svg" xmlns:xlink="http://www.w3.org/1999/xlink" xmlns:sketch="http://www.bohemiancoding.com/sketch/ns">
    <!-- Generator: Sketch 3.5.2 (25235) - http://www.bohemiancoding.com/sketch -->
    <title>Group 2</title>
    <desc>Created with Sketch.</desc>
    <defs></defs>
    <g id="Page-1" stroke="none" stroke-width="1" fill="none" fill-rule="evenodd" sketch:type="MSPage">
        <g id="Group-2" sketch:type="MSLayerGroup" fill="#FFFFFF">
            <path d="M23.086,43.807 C12.029,43.807 3.035,34.81 3.035,23.753 C3.035,12.696 12.029,3.699 23.086,3.699 C28.268,3.699 33.181,5.671 36.926,9.255 L38.873,7.217 C34.6,3.132 28.995,0.883 23.086,0.883 C10.475,0.883 0.219,11.144 0.219,23.753 C0.219,36.364 10.479,46.623 23.086,46.623 C29.403,46.623 35.282,44.108 39.628,39.54 L37.583,37.599 C33.774,41.602 28.625,43.807 23.086,43.807 L23.086,43.807 Z" id="Shape" sketch:type="MSShapeGroup"></path>
            <path d="M23.218,8.221 C27.228,8.221 31.035,9.748 33.941,12.52 L35.886,10.485 C32.454,7.206 27.957,5.402 23.218,5.402 C13.102,5.402 4.867,13.634 4.867,23.753 C4.867,33.869 13.097,42.104 23.218,42.104 C28.284,42.104 33.002,40.085 36.487,36.42 L34.446,34.48 C31.498,37.58 27.509,39.288 23.218,39.288 C14.653,39.288 7.684,32.319 7.684,23.754 C7.684,15.189 14.653,8.221 23.218,8.221 L23.218,8.221 Z" id="Shape" sketch:type="MSShapeGroup"></path>
        </g>
    </g>
</svg>