<svg width="26" height="25" viewBox="0 0 26 25" xmlns="http://www.w3.org/2000/svg"><g fill="#FEFEFE" fill-rule="evenodd"><path d="M17.487 12.998L18 12.48l-.52-.51-5.57-5.47-1.017 1.036 5.57 5.47-.007-1.03-5.506 5.56 1.03 1.02L17.488 13z"/><path d="M1.72 13.452H.994V12h16.008v1.452H1.72z"/><path d="M7.276 2.285c.445-.29.946-.578 1.495-.847C10.353.662 12.007.194 13.664.194c2.776 0 5.788 1.042 8.08 2.934 2.702 2.23 4.25 5.46 4.25 9.474 0 7.12-5.55 12.357-12.33 12.357-1.738 0-3.41-.455-4.962-1.208a12.83 12.83 0 0 1-1.456-.827 7.77 7.77 0 0 1-.553-.395l.91-1.13.104.077c.096.07.21.15.34.236.377.25.81.5 1.29.733 1.37.664 2.833 1.06 4.33 1.06 5.995 0 10.878-4.605 10.878-10.904 0-3.577-1.353-6.397-3.724-8.354-2.026-1.674-4.71-2.602-7.155-2.602-1.408 0-2.855.41-4.252 1.095A12.927 12.927 0 0 0 7.706 3.75l-.114.084-.89-1.147a9.02 9.02 0 0 1 .576-.4z"/></g></svg>