<?xml version="1.0" encoding="UTF-8" standalone="no"?>
<svg width="41px" height="41px" viewBox="0 0 41 41" version="1.1" xmlns="http://www.w3.org/2000/svg" xmlns:xlink="http://www.w3.org/1999/xlink">
    <!-- Generator: Sketch 3.6.1 (26313) - http://www.bohemiancoding.com/sketch -->
    <title>Shape</title>
    <desc>Created with Sketch.</desc>
    <defs></defs>
    <g id="Page-1" stroke="none" stroke-width="1" fill="none" fill-rule="evenodd">
        <g id="PAGE_CONNEXION" transform="translate(-526.000000, -770.000000)" fill="#3B5998">
            <g id="FBCONNECT" transform="translate(495.000000, 755.000000)">
                <g id="noun_40254_cc" transform="translate(31.000000, 15.000000)">
                    <path d="M37.8303291,0 L3.37570101,0 C1.62897739,0 0.206030151,1.41746062 0.206030151,3.15757518 L0.206030151,37.4819403 C0.206030151,39.2221575 1.62897739,40.6396181 3.37570101,40.6396181 L20.8947538,40.6396181 L28.9911206,40.6396181 L37.8304322,40.6396181 C39.5770528,40.6396181 41,39.2221575 41,37.4819403 L41,3.15757518 C41,1.41746062 39.5770528,0 37.8303291,0 L37.8303291,0 Z M22.9723618,40.5871122 L22.9723618,25.6038186 L17.9246231,25.6038186 L17.9246231,21.9093079 L22.9723618,21.9093079 L22.9723618,16.5526778 C22.9723618,14.436031 23.5790176,12.7114129 24.7430879,11.5651909 C25.8615226,10.4639189 27.5062613,9.88182816 29.4679774,9.88182816 C30.8466281,9.88182816 32.0375854,9.94925298 32.9647211,10.0152411 L32.9647211,13.2672315 L30.8567236,13.2681551 C26.9297889,13.2681551 26.8868317,16.1741957 26.8868317,17.1292267 L26.8868317,21.9093079 L32.5773844,21.9093079 L32.089402,25.6038186 L26.8869347,25.6038186 L26.8869347,40.5871122 L22.9723618,40.5871122 L22.9723618,40.5871122 Z" id="Shape"></path>
                </g>
            </g>
        </g>
    </g>
</svg>