<svg width="31" height="26" viewBox="0 0 31 26" xmlns="http://www.w3.org/2000/svg"><g fill="#FEFEFE" fill-rule="evenodd"><path d="M29.65 13.445l.513-.518-.52-.51-5.57-5.47-1.016 1.036 5.57 5.47-.008-1.03-5.507 5.56 1.03 1.02 5.507-5.558z"/><path d="M27.84 13.585h.727v-1.452H12.56v1.452H27.84z"/><path d="M19.285 2.785a14.37 14.37 0 0 0-1.495-.847C16.21 1.162 14.555.694 12.898.694c-2.776 0-5.788 1.042-8.08 2.934C2.117 5.858.57 9.088.57 13.102c0 7.12 5.55 12.357 12.33 12.357 1.738 0 3.41-.455 4.962-1.208a12.83 12.83 0 0 0 1.457-.827c.26-.173.448-.31.553-.395l-.91-1.13a8.238 8.238 0 0 1-.444.314c-.376.248-.81.498-1.29.732-1.368.664-2.832 1.06-4.328 1.06-5.996 0-10.88-4.605-10.88-10.904 0-3.577 1.354-6.397 3.725-8.354 2.026-1.674 4.71-2.602 7.155-2.602 1.408 0 2.855.41 4.252 1.095a12.927 12.927 0 0 1 1.706 1.008l.114.084.89-1.147a9.02 9.02 0 0 0-.575-.4z"/></g></svg>