<svg width="17" height="25" viewBox="0 0 17 25" xmlns="http://www.w3.org/2000/svg"><path d="M8.872 24.93c-5.303 0-8.73-3.445-8.73-8.777 0-4.842 3.86-9.05 4.025-9.226A.598.598 0 0 1 5.19 7.2c.316 1.33.78 2.665 1.085 3.168.48-.457 1.42-1.735 1.675-4.068.316-2.91-.596-5.09-.605-5.112A.607.607 0 0 1 7.53.472a.596.596 0 0 1 .734 0c.128.1 3.148 2.474 5.322 5.527 1.444 2.027 3.364 5.252 3.364 9.826 0 5.36-3.322 9.104-8.078 9.104zM4.322 8.635c-1.077 1.422-2.978 4.377-2.978 7.518 0 4.67 2.884 7.57 7.528 7.57 4.05 0 6.877-3.247 6.877-7.897 0-3.217-.998-6.116-3.14-9.124-1.142-1.603-2.558-3.034-3.606-4 .18.98.298 2.268.14 3.73-.38 3.483-2.15 5.18-2.792 5.268a1.137 1.137 0 0 1-.11.008c-.3 0-1.043 0-1.92-3.073z" fill="#FEFEFE" fill-rule="evenodd"/></svg>