<?xml version="1.0" encoding="UTF-8" standalone="no"?>
<svg width="32px" height="46px" viewBox="0 0 32 46" version="1.1" xmlns="http://www.w3.org/2000/svg" xmlns:xlink="http://www.w3.org/1999/xlink">
    <!-- Generator: Sketch 3.6.1 (26313) - http://www.bohemiancoding.com/sketch -->
    <title>Group Copy 2</title>
    <desc>Created with Sketch.</desc>
    <defs></defs>
    <g id="Page-1" stroke="none" stroke-width="1" fill="none" fill-rule="evenodd">
        <g id="CHAT_2" transform="translate(-200.000000, -73.000000)">
            <g id="Group-Copy-2" transform="translate(201.000000, 73.489130)">
                <path d="M15.1124205,0.0886222826 C15.0723754,0.081798913 15.0376193,0.0651195652 14.9960631,0.0651195652 C6.78531283,0.0651195652 0.104586426,6.76870109 0.104586426,15.0075408 L0.104586426,40.5951766 L0.103830859,40.5951766 C0.103830859,43.1622799 1.88545864,44.5042092 3.64593054,44.5042092 C5.40640244,44.5042092 7.18803022,43.1615217 7.18803022,40.5951766 C7.18803022,38.8764457 8.2548913,38.1076793 9.31268558,38.1076793 C10.3704799,38.1076793 11.4373409,38.8764457 11.4373409,40.5951766 C11.4373409,43.1622799 13.2189687,44.5042092 14.9794406,44.5042092 C16.7399125,44.5042092 18.5215403,43.1615217 18.5215403,40.5951766 C18.5215403,38.8764457 19.5884014,38.1076793 20.6461957,38.1076793 C21.7039899,38.1076793 22.770851,38.8764457 22.770851,40.5951766 C22.770851,43.1622799 24.5524788,44.5042092 26.3129507,44.5042092 C28.0734226,44.5042092 29.8550504,43.1615217 29.8550504,40.5951766 L29.8716729,15.0242201 C29.8716729,6.82935326 23.2612142,0.160646739 15.1124205,0.0886222826 L15.1124205,0.0886222826 Z M12.9212752,41.2623505 C12.9152306,41.2327826 12.9069194,41.2070054 12.9016304,41.1766793 C12.9069194,41.2077636 12.9152306,41.2320245 12.9212752,41.2623505 L12.9212752,41.2623505 Z M24.2041622,40.7968451 C24.532834,41.6164076 24.8562169,42.2593207 25.1758218,42.7483288 C24.6431469,42.3973043 24.2555408,41.7521168 24.2041622,40.7968451 L24.2041622,40.7968451 Z" id="Fill-1" fill="#FFFFFF"></path>
                <path d="M15.1124205,0.0886222826 C15.0723754,0.081798913 15.0376193,0.0651195652 14.9960631,0.0651195652 C6.78531283,0.0651195652 0.104586426,6.76870109 0.104586426,15.0075408 L0.104586426,40.5951766 L0.103830859,40.5951766 C0.103830859,43.1622799 1.88545864,44.5042092 3.64593054,44.5042092 C5.40640244,44.5042092 7.18803022,43.1615217 7.18803022,40.5951766 C7.18803022,38.8764457 8.2548913,38.1076793 9.31268558,38.1076793 C10.3704799,38.1076793 11.4373409,38.8764457 11.4373409,40.5951766 C11.4373409,43.1622799 13.2189687,44.5042092 14.9794406,44.5042092 C16.7399125,44.5042092 18.5215403,43.1615217 18.5215403,40.5951766 C18.5215403,38.8764457 19.5884014,38.1076793 20.6461957,38.1076793 C21.7039899,38.1076793 22.770851,38.8764457 22.770851,40.5951766 C22.770851,43.1622799 24.5524788,44.5042092 26.3129507,44.5042092 C28.0734226,44.5042092 29.8550504,43.1615217 29.8550504,40.5951766 L29.8716729,15.0242201 C29.8716729,6.82935326 23.2612142,0.160646739 15.1124205,0.0886222826 L15.1124205,0.0886222826 Z M12.9212752,41.2623505 C12.9152306,41.2327826 12.9069194,41.2070054 12.9016304,41.1766793 C12.9069194,41.2077636 12.9152306,41.2320245 12.9212752,41.2623505 L12.9212752,41.2623505 Z M24.2041622,40.7968451 C24.532834,41.6164076 24.8562169,42.2593207 25.1758218,42.7483288 C24.6431469,42.3973043 24.2555408,41.7521168 24.2041622,40.7968451 L24.2041622,40.7968451 Z" id="Stroke-2" stroke="#FFFFFF"></path>
                <path d="M7.89524125,16.4298342 C7.11322906,16.4298342 6.47855249,17.3843478 6.47855249,18.5617582 C6.47855249,19.7391685 7.11322906,20.6936821 7.89524125,20.6936821 C8.67800901,20.6936821 9.31193001,19.7391685 9.31193001,18.5617582 C9.31193001,17.3843478 8.67800901,16.4298342 7.89524125,16.4298342" id="Fill-3" fill="#322C40"></path>
                <path d="M22.0621288,16.4298342 C22.844141,16.4298342 23.4788176,17.3843478 23.4788176,18.5617582 C23.4788176,19.7391685 22.844141,20.6936821 22.0621288,20.6936821 C21.2801166,20.6936821 20.6454401,19.7391685 20.6454401,18.5617582 C20.6454401,17.3843478 21.2801166,16.4298342 22.0621288,16.4298342" id="Fill-4" fill="#322C40"></path>
                <path d="M14.978685,28.4958261 C17.7123277,28.4958261 19.9367179,26.2638261 19.9367179,23.5208315 C19.9367179,23.1281087 19.6201352,22.8096848 19.2279958,22.8096848 C18.8358563,22.8096848 18.5192736,23.1273505 18.5192736,23.5208315 C18.5192736,25.4806549 16.931071,27.0750489 14.9771739,27.0750489 C13.0232768,27.0750489 11.4350742,25.481413 11.4350742,23.5208315 C11.4350742,23.1281087 11.1184915,22.8096848 10.7263521,22.8096848 C10.3342126,22.8096848 10.0176299,23.1273505 10.0176299,23.5208315 C10.0206522,26.2630679 12.2450424,28.4958261 14.978685,28.4958261" id="Fill-5" fill="#322C40"></path>
            </g>
        </g>
    </g>
</svg>