<svg width="54" height="78" viewBox="0 0 54 78" xmlns="http://www.w3.org/2000/svg"><g fill="none" fill-rule="evenodd"><path d="M26.993 2.108c-13.684 0-24.82 11.145-24.82 24.842v42.54c0 4.268 2.97 6.5 5.904 6.5 2.934 0 5.903-2.233 5.903-6.5 0-2.857 1.778-4.135 3.54-4.135 1.764 0 3.542 1.278 3.542 4.135 0 4.268 2.97 6.5 5.904 6.5 2.934 0 5.903-2.233 5.903-6.5 0-2.857 1.777-4.135 3.54-4.135 1.763 0 3.54 1.278 3.54 4.135 0 4.268 2.97 6.5 5.905 6.5 2.934 0 5.903-2.233 5.903-6.5l.028-42.512c0-13.624-11.017-24.71-24.6-24.83-.065-.012-.123-.04-.193-.04z" stroke="#FFF" stroke-width="3"/><path d="M15.16 29.315c-1.305 0-2.362 1.587-2.362 3.544s1.057 3.544 2.36 3.544c1.305 0 2.362-1.587 2.362-3.545s-1.057-3.545-2.36-3.545M38.77 29.315c1.304 0 2.36 1.587 2.36 3.544s-1.056 3.544-2.36 3.544c-1.303 0-2.36-1.587-2.36-3.545s1.057-3.545 2.36-3.545M26.964 49.375c4.557 0 8.264-3.71 8.264-8.27a1.18 1.18 0 0 0-2.363 0 5.912 5.912 0 0 1-5.903 5.908 5.91 5.91 0 0 1-5.904-5.91 1.18 1.18 0 0 0-2.362 0c.005 4.56 3.712 8.272 8.268 8.272" fill="#FFF"/></g></svg>